<svg xmlns="http://www.w3.org/2000/svg" xmlns:xlink="http://www.w3.org/1999/xlink" width="1066" zoomAndPan="magnify" viewBox="0 0 799.5 799.49998" height="1066" preserveAspectRatio="xMidYMid meet" version="1.0"><defs><g/><clipPath id="82b5211504"><path d="M 242 371.582031 L 302 371.582031 L 302 427 L 242 427 Z M 242 371.582031 " clip-rule="nonzero"/></clipPath><clipPath id="933cdd7c42"><path d="M 454 377 L 557 377 L 557 427.046875 L 454 427.046875 Z M 454 377 " clip-rule="nonzero"/></clipPath><clipPath id="1fd0713623"><path d="M 284 387 L 395 387 L 395 427.046875 L 284 427.046875 Z M 284 387 " clip-rule="nonzero"/></clipPath><clipPath id="0ba0b213e8"><path d="M 398 371.582031 L 453 371.582031 L 453 427 L 398 427 Z M 398 371.582031 " clip-rule="nonzero"/></clipPath></defs><path fill="#ffffff" d="M 302.722656 412.03125 C 302.722656 412.324219 302.667969 412.605469 302.554688 412.878906 C 302.445312 413.148438 302.285156 413.386719 302.074219 413.597656 C 301.867188 413.804688 301.628906 413.964844 301.355469 414.078125 C 301.085938 414.1875 300.804688 414.246094 300.507812 414.246094 C 300.214844 414.246094 299.933594 414.1875 299.660156 414.078125 C 299.390625 413.964844 299.152344 413.804688 298.945312 413.597656 C 298.734375 413.386719 298.574219 413.148438 298.464844 412.878906 C 298.351562 412.605469 298.292969 412.324219 298.292969 412.03125 C 298.292969 411.734375 298.351562 411.453125 298.464844 411.183594 C 298.574219 410.910156 298.734375 410.671875 298.945312 410.464844 C 299.152344 410.257812 299.390625 410.097656 299.660156 409.984375 C 299.933594 409.871094 300.214844 409.816406 300.507812 409.816406 C 300.804688 409.816406 301.085938 409.871094 301.355469 409.984375 C 301.628906 410.097656 301.867188 410.257812 302.074219 410.464844 C 302.285156 410.671875 302.445312 410.910156 302.554688 411.183594 C 302.667969 411.453125 302.722656 411.734375 302.722656 412.03125 Z M 302.722656 412.03125 " fill-opacity="1" fill-rule="nonzero"/><g clip-path="url(#82b5211504)"><path fill="#ffffff" d="M 301.066406 371.582031 L 242.171875 371.582031 L 242.171875 376.457031 L 264.976562 376.457031 L 264.976562 426.625 L 278.265625 426.625 L 278.265625 376.457031 L 301.066406 376.457031 Z M 301.066406 371.582031 " fill-opacity="1" fill-rule="nonzero"/></g><g clip-path="url(#933cdd7c42)"><path fill="#ffffff" d="M 551.160156 423.160156 C 549.484375 423.160156 548.195312 422.613281 547.308594 421.515625 C 546.417969 420.417969 545.972656 418.789062 545.972656 416.640625 L 545.972656 392.191406 L 555.335938 392.191406 L 556.59375 388.101562 L 545.980469 388.101562 L 545.980469 377.242188 L 537.332031 377.242188 L 534.574219 388.089844 L 528.914062 388.089844 L 527.601562 391.898438 C 526.890625 391.28125 526.074219 390.714844 525.167969 390.222656 C 521.628906 388.28125 516.820312 387.316406 510.742188 387.316406 C 504.664062 387.316406 499.589844 388.28125 496.316406 390.222656 C 495.351562 390.789062 494.546875 391.441406 493.863281 392.144531 C 490.058594 388.933594 484.664062 387.316406 477.648438 387.316406 C 472.9375 387.316406 468.847656 388.128906 465.382812 389.757812 C 461.917969 391.386719 459.257812 393.714844 457.402344 396.753906 C 455.539062 399.789062 454.609375 403.386719 454.609375 407.523438 C 454.609375 411.660156 455.539062 415.152344 457.402344 418.136719 C 459.265625 421.125 461.925781 423.417969 465.382812 425.015625 C 468.835938 426.617188 472.925781 427.410156 477.648438 427.410156 C 483.574219 427.410156 488.488281 426.246094 492.398438 423.910156 C 493.125 423.472656 493.777344 422.992188 494.402344 422.488281 C 497.78125 425.765625 503.066406 427.410156 510.277344 427.410156 C 524.902344 427.410156 532.21875 423.378906 532.21875 415.304688 C 532.21875 411.898438 530.6875 409.160156 527.617188 407.089844 C 524.550781 405.015625 519.789062 403.433594 513.34375 402.328125 C 510.515625 401.855469 508.367188 401.34375 506.898438 400.792969 C 505.429688 400.246094 504.445312 399.640625 503.945312 398.984375 C 503.445312 398.332031 503.199219 397.507812 503.199219 396.507812 C 503.199219 393.097656 506.101562 391.394531 511.925781 391.394531 C 514.859375 391.394531 517.253906 392.019531 519.117188 393.277344 C 520.984375 394.539062 522.175781 396.375 522.695312 398.789062 L 531.347656 398.789062 C 530.941406 396.128906 529.785156 393.929688 527.902344 392.179688 L 534.347656 392.179688 L 534.347656 415.84375 C 534.347656 419.621094 535.378906 422.488281 537.453125 424.457031 C 539.527344 426.425781 542.527344 427.410156 546.457031 427.410156 C 550.960938 427.410156 554.425781 426.890625 556.839844 425.839844 L 556.839844 421.675781 C 554.957031 422.667969 553.0625 423.171875 551.179688 423.171875 Z M 470.246094 394.546875 C 472.1875 392.453125 474.78125 391.40625 478.027344 391.40625 C 481.273438 391.40625 483.585938 392.425781 485.421875 394.472656 C 487.257812 396.515625 488.382812 399.535156 488.800781 403.511719 L 466.546875 403.511719 C 467.066406 399.628906 468.296875 396.640625 470.238281 394.546875 Z M 510.417969 410.03125 C 513.515625 410.507812 515.949219 411.320312 517.738281 412.476562 C 519.515625 413.628906 520.40625 414.964844 520.40625 416.488281 C 520.40625 418.589844 519.527344 420.246094 517.773438 421.484375 C 516.015625 422.714844 513.589844 423.332031 510.503906 423.332031 C 507.417969 423.332031 504.902344 423.273438 502.675781 421.363281 C 499.621094 418.730469 499.636719 414.613281 499.65625 413.867188 C 499.601562 413.875 499.542969 413.886719 499.488281 413.894531 L 490.921875 413.894531 C 490.816406 414.472656 490.675781 415.019531 490.523438 415.542969 C 489.851562 417.871094 488.742188 419.6875 487.179688 420.964844 C 485.269531 422.535156 482.535156 423.324219 478.964844 423.324219 C 470.476562 423.324219 466.226562 418.238281 466.226562 408.0625 L 466.226562 407.589844 L 499.980469 407.589844 C 502.722656 408.554688 506.199219 409.371094 510.410156 410.03125 Z M 510.417969 410.03125 " fill-opacity="1" fill-rule="nonzero"/></g><g clip-path="url(#1fd0713623)"><path fill="#ffffff" d="M 394.609375 407.601562 C 394.609375 400.992188 392.695312 395.964844 388.871094 392.503906 C 385.046875 389.039062 379.492188 387.316406 372.203125 387.316406 C 367.488281 387.316406 363.398438 388.128906 359.933594 389.757812 C 356.46875 391.386719 353.8125 393.714844 351.957031 396.753906 C 351.8125 396.988281 351.679688 397.226562 351.558594 397.472656 L 351.558594 388.109375 L 339.925781 388.109375 L 339.925781 409.964844 C 339.925781 414.054688 338.976562 417.300781 337.09375 419.714844 C 335.210938 422.128906 332.636719 423.332031 329.390625 423.332031 C 323.832031 423.332031 321.050781 420 321.050781 413.34375 L 321.050781 388.109375 C 321.050781 387.890625 321.050781 387.664062 321.050781 387.449219 C 317.253906 387.429688 313.449219 387.410156 309.652344 387.398438 C 309.238281 387.351562 308.792969 387.335938 308.308594 387.335938 C 305.109375 387.335938 302.449219 388.089844 300.328125 389.617188 C 298.210938 391.140625 296.648438 393.289062 295.652344 396.0625 L 295.652344 388.121094 L 284.019531 388.121094 L 284.019531 426.644531 L 295.652344 426.644531 L 295.652344 409.664062 C 295.652344 405.414062 296.570312 401.722656 298.410156 398.578125 C 300.246094 395.4375 303.101562 393.867188 306.976562 393.867188 C 307.910156 393.867188 308.726562 393.96875 309.417969 394.167969 L 309.417969 412.65625 C 309.417969 417.265625 310.894531 420.878906 313.855469 423.503906 C 316.820312 426.125 320.871094 427.429688 326 427.429688 C 329.097656 427.429688 331.886719 426.785156 334.378906 425.5 C 336.867188 424.210938 338.714844 422.46875 339.925781 420.273438 L 339.925781 426.644531 L 351.558594 426.644531 L 351.558594 417.445312 C 351.691406 417.679688 351.8125 417.917969 351.957031 418.144531 C 353.820312 421.136719 356.480469 423.425781 359.933594 425.027344 C 363.390625 426.625 367.480469 427.421875 372.203125 427.421875 C 378.128906 427.421875 383.039062 426.257812 386.949219 423.917969 C 390.859375 421.589844 393.253906 418.25 394.144531 413.894531 L 385.492188 413.894531 C 384.914062 417.039062 383.675781 419.402344 381.753906 420.976562 C 379.839844 422.546875 377.105469 423.332031 373.535156 423.332031 C 365.046875 423.332031 360.796875 418.25 360.796875 408.074219 L 360.796875 407.601562 Z M 364.800781 394.546875 C 366.742188 392.453125 369.335938 391.40625 372.582031 391.40625 C 375.828125 391.40625 378.136719 392.425781 379.972656 394.472656 C 381.808594 396.515625 382.9375 399.535156 383.351562 403.511719 L 361.097656 403.511719 C 361.621094 399.628906 362.851562 396.640625 364.789062 394.546875 Z M 364.800781 394.546875 " fill-opacity="1" fill-rule="nonzero"/></g><g clip-path="url(#0ba0b213e8)"><path fill="#ffffff" d="M 439.65625 408.773438 L 411.511719 371.582031 L 398.375 371.582031 L 398.375 426.625 L 410.953125 426.625 L 410.953125 383.378906 L 443.269531 426.625 L 452.242188 426.625 L 452.242188 371.582031 L 439.65625 371.582031 Z M 439.65625 408.773438 " fill-opacity="1" fill-rule="nonzero"/></g><g fill="#ffffff" fill-opacity="1"><g transform="translate(322.961206, 453.395692)"><g><path d="M 9.09375 -6.5 L 9.09375 -6.46875 C 9.375 -6.363281 9.6875 -6.191406 10.03125 -5.953125 C 10.382812 -5.710938 10.6875 -5.394531 10.9375 -5 C 11.195312 -4.601562 11.328125 -4.097656 11.328125 -3.484375 C 11.328125 -2.617188 11.117188 -1.929688 10.703125 -1.421875 C 10.285156 -0.921875 9.734375 -0.554688 9.046875 -0.328125 C 8.359375 -0.109375 7.617188 0 6.828125 0 L 1.921875 0 C 1.773438 0 1.671875 -0.0195312 1.609375 -0.0625 C 1.554688 -0.113281 1.53125 -0.21875 1.53125 -0.375 L 1.53125 -12.21875 C 1.53125 -12.351562 1.554688 -12.445312 1.609375 -12.5 C 1.660156 -12.5625 1.765625 -12.59375 1.921875 -12.59375 L 6.390625 -12.59375 C 6.898438 -12.59375 7.414062 -12.53125 7.9375 -12.40625 C 8.46875 -12.289062 8.957031 -12.097656 9.40625 -11.828125 C 9.851562 -11.566406 10.207031 -11.210938 10.46875 -10.765625 C 10.738281 -10.316406 10.875 -9.757812 10.875 -9.09375 C 10.875 -8.613281 10.78125 -8.203125 10.59375 -7.859375 C 10.40625 -7.523438 10.175781 -7.242188 9.90625 -7.015625 C 9.632812 -6.796875 9.363281 -6.625 9.09375 -6.5 Z M 3.703125 -5.515625 L 3.703125 -1.8125 L 6.71875 -1.8125 C 7.570312 -1.8125 8.191406 -1.96875 8.578125 -2.28125 C 8.960938 -2.601562 9.15625 -3.070312 9.15625 -3.6875 C 9.15625 -4.1875 8.941406 -4.613281 8.515625 -4.96875 C 8.085938 -5.332031 7.515625 -5.515625 6.796875 -5.515625 Z M 3.703125 -10.765625 L 3.703125 -7.265625 L 6.5 -7.265625 C 7.195312 -7.265625 7.738281 -7.421875 8.125 -7.734375 C 8.507812 -8.054688 8.703125 -8.441406 8.703125 -8.890625 C 8.703125 -9.535156 8.492188 -10.007812 8.078125 -10.3125 C 7.671875 -10.613281 7.078125 -10.765625 6.296875 -10.765625 Z M 3.703125 -10.765625 "/></g></g></g><g fill="#ffffff" fill-opacity="1"><g transform="translate(335.023973, 453.395692)"><g/></g></g><g fill="#ffffff" fill-opacity="1"><g transform="translate(339.575109, 453.395692)"><g/></g></g><g fill="#ffffff" fill-opacity="1"><g transform="translate(344.135462, 453.395692)"><g><path d="M 9.96875 -12.59375 L 11.359375 -12.59375 C 11.515625 -12.59375 11.617188 -12.5625 11.671875 -12.5 C 11.734375 -12.445312 11.765625 -12.351562 11.765625 -12.21875 L 11.765625 -5.171875 C 11.765625 -3.992188 11.523438 -3 11.046875 -2.1875 C 10.578125 -1.382812 9.945312 -0.78125 9.15625 -0.375 C 8.363281 0.03125 7.476562 0.234375 6.5 0.234375 C 5.519531 0.234375 4.628906 0.03125 3.828125 -0.375 C 3.023438 -0.78125 2.382812 -1.382812 1.90625 -2.1875 C 1.4375 -3 1.203125 -3.992188 1.203125 -5.171875 L 1.203125 -12.21875 C 1.203125 -12.46875 1.332031 -12.59375 1.59375 -12.59375 L 3 -12.59375 C 3.15625 -12.59375 3.253906 -12.5625 3.296875 -12.5 C 3.347656 -12.445312 3.375 -12.351562 3.375 -12.21875 L 3.375 -5.265625 C 3.375 -4.035156 3.648438 -3.128906 4.203125 -2.546875 C 4.753906 -1.960938 5.519531 -1.671875 6.5 -1.671875 C 7.46875 -1.671875 8.222656 -1.960938 8.765625 -2.546875 C 9.304688 -3.128906 9.578125 -4.035156 9.578125 -5.265625 L 9.578125 -12.21875 C 9.578125 -12.351562 9.601562 -12.445312 9.65625 -12.5 C 9.707031 -12.5625 9.8125 -12.59375 9.96875 -12.59375 Z M 9.96875 -12.59375 "/></g></g></g><g fill="#ffffff" fill-opacity="1"><g transform="translate(357.111721, 453.395692)"><g/></g></g><g fill="#ffffff" fill-opacity="1"><g transform="translate(361.662856, 453.395692)"><g/></g></g><g fill="#ffffff" fill-opacity="1"><g transform="translate(366.22321, 453.395692)"><g><path d="M 1.59375 -0.375 L 1.59375 -12.21875 C 1.59375 -12.351562 1.617188 -12.445312 1.671875 -12.5 C 1.734375 -12.5625 1.835938 -12.59375 1.984375 -12.59375 L 3.40625 -12.59375 C 3.5625 -12.59375 3.660156 -12.5625 3.703125 -12.5 C 3.753906 -12.445312 3.78125 -12.351562 3.78125 -12.21875 L 3.78125 -0.375 C 3.78125 -0.226562 3.75 -0.128906 3.6875 -0.078125 C 3.632812 -0.0234375 3.539062 0 3.40625 0 L 1.984375 0 C 1.835938 0 1.734375 -0.0234375 1.671875 -0.078125 C 1.617188 -0.128906 1.59375 -0.226562 1.59375 -0.375 Z M 1.59375 -0.375 "/></g></g></g><g fill="#ffffff" fill-opacity="1"><g transform="translate(371.610465, 453.395692)"><g/></g></g><g fill="#ffffff" fill-opacity="1"><g transform="translate(376.1616, 453.395692)"><g/></g></g><g fill="#ffffff" fill-opacity="1"><g transform="translate(380.721954, 453.395692)"><g><path d="M 9.3125 0 L 1.9375 0 C 1.789062 0 1.691406 -0.0234375 1.640625 -0.078125 C 1.585938 -0.128906 1.5625 -0.226562 1.5625 -0.375 L 1.5625 -12.21875 C 1.5625 -12.351562 1.585938 -12.445312 1.640625 -12.5 C 1.691406 -12.5625 1.789062 -12.59375 1.9375 -12.59375 L 3.359375 -12.59375 C 3.503906 -12.59375 3.601562 -12.5625 3.65625 -12.5 C 3.707031 -12.445312 3.734375 -12.351562 3.734375 -12.21875 L 3.734375 -1.859375 L 9.3125 -1.859375 C 9.457031 -1.859375 9.554688 -1.832031 9.609375 -1.78125 C 9.660156 -1.726562 9.6875 -1.625 9.6875 -1.46875 L 9.6875 -0.375 C 9.6875 -0.226562 9.660156 -0.128906 9.609375 -0.078125 C 9.554688 -0.0234375 9.457031 0 9.3125 0 Z M 9.3125 0 "/></g></g></g><g fill="#ffffff" fill-opacity="1"><g transform="translate(391.004585, 453.395692)"><g/></g></g><g fill="#ffffff" fill-opacity="1"><g transform="translate(395.55572, 453.395692)"><g/></g></g><g fill="#ffffff" fill-opacity="1"><g transform="translate(400.116073, 453.395692)"><g><path d="M 6.453125 0 L 1.9375 0 C 1.789062 0 1.691406 -0.0234375 1.640625 -0.078125 C 1.585938 -0.128906 1.5625 -0.226562 1.5625 -0.375 L 1.5625 -12.21875 C 1.5625 -12.351562 1.585938 -12.445312 1.640625 -12.5 C 1.691406 -12.5625 1.789062 -12.59375 1.9375 -12.59375 L 6.453125 -12.59375 C 7.335938 -12.59375 8.164062 -12.429688 8.9375 -12.109375 C 9.707031 -11.796875 10.378906 -11.351562 10.953125 -10.78125 C 11.535156 -10.207031 11.988281 -9.539062 12.3125 -8.78125 C 12.644531 -8.019531 12.8125 -7.191406 12.8125 -6.296875 C 12.8125 -5.398438 12.644531 -4.566406 12.3125 -3.796875 C 11.988281 -3.035156 11.535156 -2.367188 10.953125 -1.796875 C 10.378906 -1.234375 9.707031 -0.789062 8.9375 -0.46875 C 8.164062 -0.15625 7.335938 0 6.453125 0 Z M 6.4375 -10.765625 L 3.734375 -10.765625 L 3.734375 -1.8125 L 6.4375 -1.8125 C 7.3125 -1.8125 8.054688 -2.019531 8.671875 -2.4375 C 9.296875 -2.863281 9.773438 -3.414062 10.109375 -4.09375 C 10.441406 -4.78125 10.609375 -5.515625 10.609375 -6.296875 C 10.609375 -7.085938 10.441406 -7.820312 10.109375 -8.5 C 9.773438 -9.175781 9.296875 -9.722656 8.671875 -10.140625 C 8.054688 -10.554688 7.3125 -10.765625 6.4375 -10.765625 Z M 6.4375 -10.765625 "/></g></g></g><g fill="#ffffff" fill-opacity="1"><g transform="translate(413.759887, 453.395692)"><g/></g></g><g fill="#ffffff" fill-opacity="1"><g transform="translate(418.311023, 453.395692)"><g/></g></g><g fill="#ffffff" fill-opacity="1"><g transform="translate(422.871376, 453.395692)"><g><path d="M 10.390625 -1.46875 L 10.390625 -0.375 C 10.390625 -0.226562 10.363281 -0.128906 10.3125 -0.078125 C 10.257812 -0.0234375 10.15625 0 10 0 L 1.921875 0 C 1.765625 0 1.660156 -0.0234375 1.609375 -0.078125 C 1.554688 -0.128906 1.53125 -0.226562 1.53125 -0.375 L 1.53125 -12.21875 C 1.53125 -12.46875 1.660156 -12.59375 1.921875 -12.59375 L 10 -12.59375 C 10.257812 -12.59375 10.390625 -12.46875 10.390625 -12.21875 L 10.390625 -11.109375 C 10.390625 -10.847656 10.257812 -10.71875 10 -10.71875 L 3.703125 -10.71875 L 3.703125 -7.265625 L 9.734375 -7.265625 C 9.890625 -7.265625 9.988281 -7.238281 10.03125 -7.1875 C 10.082031 -7.144531 10.109375 -7.046875 10.109375 -6.890625 L 10.109375 -5.796875 C 10.109375 -5.648438 10.082031 -5.546875 10.03125 -5.484375 C 9.988281 -5.429688 9.890625 -5.40625 9.734375 -5.40625 L 3.703125 -5.40625 L 3.703125 -1.859375 L 10 -1.859375 C 10.15625 -1.859375 10.257812 -1.832031 10.3125 -1.78125 C 10.363281 -1.726562 10.390625 -1.625 10.390625 -1.46875 Z M 10.390625 -1.46875 "/></g></g></g><g fill="#ffffff" fill-opacity="1"><g transform="translate(434.336857, 453.395692)"><g/></g></g><g fill="#ffffff" fill-opacity="1"><g transform="translate(438.887993, 453.395692)"><g/></g></g><g fill="#ffffff" fill-opacity="1"><g transform="translate(443.448346, 453.395692)"><g><path d="M 10.96875 0 L 9.640625 0 C 9.484375 0 9.359375 -0.03125 9.265625 -0.09375 C 9.171875 -0.164062 9.070312 -0.257812 8.96875 -0.375 L 5.84375 -4.984375 L 3.734375 -4.984375 L 3.734375 -0.375 C 3.734375 -0.21875 3.707031 -0.113281 3.65625 -0.0625 C 3.601562 -0.0195312 3.503906 0 3.359375 0 L 1.9375 0 C 1.789062 0 1.691406 -0.0195312 1.640625 -0.0625 C 1.585938 -0.113281 1.5625 -0.21875 1.5625 -0.375 L 1.5625 -12.21875 C 1.5625 -12.351562 1.585938 -12.445312 1.640625 -12.5 C 1.691406 -12.5625 1.789062 -12.59375 1.9375 -12.59375 L 6.328125 -12.59375 C 6.847656 -12.59375 7.367188 -12.53125 7.890625 -12.40625 C 8.410156 -12.289062 8.890625 -12.085938 9.328125 -11.796875 C 9.773438 -11.503906 10.132812 -11.113281 10.40625 -10.625 C 10.675781 -10.144531 10.8125 -9.539062 10.8125 -8.8125 C 10.8125 -7.78125 10.550781 -6.976562 10.03125 -6.40625 C 9.507812 -5.832031 8.859375 -5.429688 8.078125 -5.203125 L 11.296875 -0.484375 C 11.390625 -0.316406 11.394531 -0.191406 11.3125 -0.109375 C 11.238281 -0.0351562 11.125 0 10.96875 0 Z M 6.234375 -10.765625 L 3.734375 -10.765625 L 3.734375 -6.796875 L 6.234375 -6.796875 C 7.085938 -6.796875 7.710938 -6.96875 8.109375 -7.3125 C 8.503906 -7.664062 8.703125 -8.164062 8.703125 -8.8125 C 8.703125 -9.5 8.484375 -9.992188 8.046875 -10.296875 C 7.617188 -10.609375 7.015625 -10.765625 6.234375 -10.765625 Z M 6.234375 -10.765625 "/></g></g></g><g fill="#ffffff" fill-opacity="1"><g transform="translate(455.382292, 453.395692)"><g/></g></g><g fill="#ffffff" fill-opacity="1"><g transform="translate(459.933427, 453.395692)"><g/></g></g><g fill="#ffffff" fill-opacity="1"><g transform="translate(464.49378, 453.395692)"><g><path d="M 10.25 -10.875 L 9.71875 -10 C 9.613281 -9.820312 9.507812 -9.734375 9.40625 -9.734375 C 9.351562 -9.734375 9.28125 -9.757812 9.1875 -9.8125 C 8.613281 -10.195312 8.070312 -10.46875 7.5625 -10.625 C 7.050781 -10.789062 6.503906 -10.875 5.921875 -10.875 C 5.171875 -10.875 4.597656 -10.769531 4.203125 -10.5625 C 3.804688 -10.363281 3.539062 -10.113281 3.40625 -9.8125 C 3.269531 -9.519531 3.203125 -9.222656 3.203125 -8.921875 C 3.203125 -8.523438 3.332031 -8.210938 3.59375 -7.984375 C 3.863281 -7.765625 4.226562 -7.601562 4.6875 -7.5 C 5.15625 -7.394531 5.695312 -7.300781 6.3125 -7.21875 C 6.863281 -7.144531 7.394531 -7.035156 7.90625 -6.890625 C 8.414062 -6.753906 8.875 -6.554688 9.28125 -6.296875 C 9.6875 -6.035156 10.007812 -5.6875 10.25 -5.25 C 10.488281 -4.820312 10.609375 -4.269531 10.609375 -3.59375 C 10.609375 -2.9375 10.429688 -2.316406 10.078125 -1.734375 C 9.734375 -1.160156 9.21875 -0.691406 8.53125 -0.328125 C 7.84375 0.0234375 6.984375 0.203125 5.953125 0.203125 C 4.023438 0.203125 2.398438 -0.253906 1.078125 -1.171875 C 0.941406 -1.253906 0.875 -1.332031 0.875 -1.40625 C 0.875 -1.488281 0.90625 -1.585938 0.96875 -1.703125 L 1.53125 -2.609375 C 1.625 -2.773438 1.71875 -2.859375 1.8125 -2.859375 C 1.894531 -2.859375 1.972656 -2.828125 2.046875 -2.765625 C 2.617188 -2.398438 3.226562 -2.128906 3.875 -1.953125 C 4.53125 -1.785156 5.160156 -1.703125 5.765625 -1.703125 C 6.546875 -1.703125 7.195312 -1.835938 7.71875 -2.109375 C 8.238281 -2.378906 8.5 -2.84375 8.5 -3.5 C 8.5 -4.15625 8.210938 -4.601562 7.640625 -4.84375 C 7.078125 -5.09375 6.289062 -5.28125 5.28125 -5.40625 C 4.789062 -5.46875 4.300781 -5.566406 3.8125 -5.703125 C 3.320312 -5.847656 2.867188 -6.046875 2.453125 -6.296875 C 2.035156 -6.546875 1.703125 -6.875 1.453125 -7.28125 C 1.210938 -7.695312 1.09375 -8.21875 1.09375 -8.84375 C 1.09375 -9.226562 1.171875 -9.648438 1.328125 -10.109375 C 1.484375 -10.566406 1.738281 -11 2.09375 -11.40625 C 2.457031 -11.8125 2.9375 -12.140625 3.53125 -12.390625 C 4.125 -12.648438 4.859375 -12.78125 5.734375 -12.78125 C 6.660156 -12.78125 7.457031 -12.65625 8.125 -12.40625 C 8.789062 -12.164062 9.46875 -11.835938 10.15625 -11.421875 C 10.289062 -11.347656 10.351562 -11.269531 10.34375 -11.1875 C 10.34375 -11.113281 10.3125 -11.007812 10.25 -10.875 Z M 10.25 -10.875 "/></g></g></g></svg>